<svg version="1.2" xmlns="http://www.w3.org/2000/svg" viewBox="0 0 512 261" width="512" height="261">
	<title>&lt;Path&gt;</title>
	<style>
		.s0 { fill: #6930c2 } 
	</style>
	<path id="&lt;Path&gt;" class="s0" d="m27.8 36.1c24.7-24.6 60.5-29.7 89.5-17.4 18.4 7.9 26.4 18.2 49.1 40.9l31.8-31.8c31.7-31.7 83.4-31.7 115.1 0 32.1 32.1 31.4 31.8 31.8 31.8 22.1-22.1 30.6-32.9 49.1-40.8 29.3-12.5 64.9-7.2 89.3 17.1 27.6 23 36.1 79.4 0.3 115.2l-10.8 10.8c-16.9 16.9-42.6-8.9-25.8-25.7l10.8-10.8c24.8-24.7 12.2-65.6-18-74.7-16.8-5.1-33.9-0.6-45.6 11.1l-23.5 23.5c7.8 7.9-7.6-7.6 29.5 29.7 16.8 16.9-8.9 42.6-25.8 25.7-90.8-91.2-93.9-100.4-118.9-100.4-23.5 0-31.9 13.3-63.6 45 36.3 36.3 84.9 84.9 121.2 121.1 17.6 17.6 46.1 17.6 63.6 0l19.2-19.1c16.8-16.8 42.7 8.8 25.7 25.7l-19.1 19.1c-31.8 31.7-83.3 31.8-115.1 0-11.6-11.6-23.3-23.3-31.8-31.8-8.5 8.5-20.2 20.1-31.9 31.8-31.7 31.7-83.3 31.7-115 0l-19-18.9c-7.1-7.1-7.1-18.7 0-25.8 7.1-7.1 18.6-7.1 25.7 0l19 19c17.5 17.5 46.1 17.5 63.6 0l30.7-30.7c1.6-1.6 9.1 6.9-75.4-77.6-34-33.9-43.9-49.5-68.2-49.5-39.6 0-60.3 48.4-31.8 76.7l10.7 10.7c7.1 7.1 7 18.6 0 25.7-7 7-18.6 7.2-25.8 0l-10.6-10.6c-31.7-31.7-31.7-83.3 0-115z"/>
</svg>